<svg xmlns="http://www.w3.org/2000/svg" viewBox="0 0 151.92 140.57"><defs><style>.cls-1{fill:#c74f4e;opacity:0.1;}.cls-2,.cls-4,.cls-8{fill:none;stroke-linecap:round;stroke-linejoin:round;}.cls-2,.cls-4{stroke:#ff5a58;}.cls-2{stroke-width:7px;}.cls-11,.cls-3{fill:#ff5a58;}.cls-4{stroke-width:8px;}.cls-5,.cls-7{fill:#c84e4d;}.cls-5{opacity:0.5;}.cls-6{fill:#efe637;}.cls-7{opacity:0.3;}.cls-8{stroke:#c74f4e;stroke-width:2px;}.cls-9{opacity:0.4;}.cls-10{fill:#fff;}.cls-11{opacity:0.6;}</style></defs><g id="Layer_2" data-name="Layer 2"><g id="Calque_1" data-name="Calque 1"><path class="cls-1" d="M132.16,116.26C132,122.61,114.32,127.39,92.6,127s-39.22-6-39.09-12.31S71.35,103.51,93.07,104,132.29,109.91,132.16,116.26Z"/><path class="cls-2" d="M86.72,52.77s-14.8,26.16-2.57,65"/><path class="cls-3" d="M85.42,109.3s-2.38-6,3.5-4.7c0,0-18.58-5.67-20.25-8.67a35.17,35.17,0,0,1,10.25,15Z"/><path class="cls-2" d="M96.16,59.45C109.25,91.6,93,114.39,93,114.39"/><path class="cls-3" d="M90.29,104.18s3.44,2.19,1.44,5.56l7.81-.44a9.82,9.82,0,0,1,6.13-5.75A65.76,65.76,0,0,1,90.29,104.18Z"/><path class="cls-3" d="M49.1,54.5c.34-28.39,24.07-50.93,52.46-50.34a51.42,51.42,0,0,1,50.35,52.46c-.47,22.44-8,35.53-27,45.06a48.22,48.22,0,0,1-24.42,4.71S48.47,105.82,49.1,54.5Z"/><path class="cls-4" d="M53.91,51.76s-.51,68-49.91,84.81"/><path class="cls-5" d="M50.13,71.73c1.36.43,2,2.28,1.41,4.12s-2.16,3-3.52,2.57-2-2.27-1.41-4.12S48.77,71.3,50.13,71.73Z"/><path class="cls-6" d="M48.82,76.65s1.87-2.5,1.39-4.13c0,0-3.65-3.19-5.23.22C45,72.74,43.79,76.08,48.82,76.65Z"/><path class="cls-5" d="M46.61,85.63c1,.32,1.48,1.7,1,3.07s-1.6,2.22-2.61,1.9-1.48-1.69-1-3.06S45.6,85.32,46.61,85.63Z"/><path class="cls-6" d="M45.64,89.29s1.39-1.86,1-3.07c0,0-2.71-2.37-3.88.17C42.79,86.39,41.9,88.87,45.64,89.29Z"/><path class="cls-5" d="M42.62,96.63c1,.32,1.49,1.69,1.05,3.07s-1.6,2.22-2.61,1.9S39.58,99.91,40,98.54,41.61,96.31,42.62,96.63Z"/><path class="cls-6" d="M41.65,100.28s1.39-1.85,1-3.06c0,0-2.71-2.37-3.88.16C38.8,97.38,37.91,99.86,41.65,100.28Z"/><path class="cls-5" d="M37.56,107.13c.84.64.83,2.09,0,3.24s-2.25,1.56-3.1.92-.83-2.08,0-3.23S36.71,106.49,37.56,107.13Z"/><path class="cls-6" d="M35.42,110.25s1.93-1.29,2-2.55c0,0-1.76-3.14-3.71-1.14C33.7,106.56,32,108.61,35.42,110.25Z"/><path class="cls-5" d="M32,115.17c.84.64.83,2.09,0,3.24s-2.25,1.56-3.1.92-.83-2.09,0-3.24S31.11,114.53,32,115.17Z"/><path class="cls-6" d="M29.82,118.29s1.93-1.29,2-2.55c0,0-1.76-3.14-3.71-1.14C28.1,114.6,26.44,116.64,29.82,118.29Z"/><path class="cls-5" d="M25.54,122.14c.85.64.83,2.09,0,3.24s-2.26,1.57-3.1.93-.84-2.09,0-3.24S24.69,121.51,25.54,122.14Z"/><path class="cls-6" d="M23.41,125.26s1.92-1.28,2-2.55c0,0-1.76-3.13-3.72-1.13C21.68,121.58,20,123.62,23.41,125.26Z"/><path class="cls-5" d="M17.3,127.88c.59.88.1,2.24-1.09,3.05s-2.64.74-3.23-.14-.11-2.25,1.08-3S16.7,127,17.3,127.88Z"/><path class="cls-6" d="M14.26,130.13s2.24-.59,2.72-1.76c0,0-.64-3.54-3.14-2.29C13.84,126.08,11.6,127.47,14.26,130.13Z"/><path class="cls-5" d="M10,133.47c.38,1-.41,2.21-1.76,2.72s-2.74.12-3.11-.88.41-2.21,1.75-2.72S9.58,132.48,10,133.47Z"/><path class="cls-6" d="M6.48,135s2.31-.06,3-1.09c0,0,.18-3.6-2.54-2.95C7,130.93,4.5,131.77,6.48,135Z"/><path class="cls-7" d="M105.9,4.32c51,9.38,45.87,55.28,45.87,55.28-.88,10.49-2.47,18.63-6,23.72-18.36,26.61-45.31,23.07-45.31,23.07s34.95-43,6.77-99.7"/><path class="cls-8" d="M112.87,56.44c2.38-1.74,9.15-5.75,15.45-.21"/><path class="cls-8" d="M87.37,55.38s7.5-6.06,16.13.79"/><path class="cls-8" d="M114.4,55.38s4.21-1.3,4.07-8"/><path class="cls-8" d="M122,53.38s5.54-1.77,4.89-7.42"/><path class="cls-8" d="M127.91,55.66s8.39-1.15,7.71-8.69"/><path class="cls-8" d="M102.94,55.82s-4-2-2.73-8.55"/><path class="cls-8" d="M95.72,52.62S90.53,50,92.08,44.5"/><path class="cls-8" d="M89.55,53.93s-8.09-2.49-6.21-9.82"/><g class="cls-9"><path class="cls-10" d="M79.08,65.94a3.79,3.79,0,1,1-3.71-3.86A3.79,3.79,0,0,1,79.08,65.94Z"/><path class="cls-11" d="M79.08,65.94a3.79,3.79,0,1,1-3.71-3.86A3.79,3.79,0,0,1,79.08,65.94Z"/></g><g class="cls-9"><path class="cls-10" d="M141.59,68.23a3.79,3.79,0,1,1-3.71-3.87A3.78,3.78,0,0,1,141.59,68.23Z"/><path class="cls-11" d="M141.59,68.23a3.79,3.79,0,1,1-3.71-3.87A3.78,3.78,0,0,1,141.59,68.23Z"/></g><path class="cls-5" d="M107.63,12.86c-.07,2.77-4.3,4.91-9.45,4.79S88.9,15.19,89,12.42s4.3-4.92,9.45-4.8S107.69,10.09,107.63,12.86Z"/><path class="cls-6" d="M94.79,13.25s7.91,1.86,11.32-1c0,0,3.83-12-6-12.26C100.12,0,90.91.62,94.79,13.25Z"/><path class="cls-5" d="M82.09,12.31c1.15,2.07-.48,5.16-3.63,6.91s-6.64,1.48-7.78-.59.47-5.17,3.63-6.91S80.94,10.24,82.09,12.31Z"/><path class="cls-5" d="M64.83,20.43c2.06,1.16,2.3,4.65.54,7.79S60.5,33,58.44,31.8,56.13,27.16,57.9,24,62.76,19.27,64.83,20.43Z"/><path class="cls-5" d="M55.81,36.43c2.3.58,3.52,3.57,2.74,6.68S55.27,48.28,53,47.7,49.46,44.13,50.24,41,53.52,35.85,55.81,36.43Z"/><path class="cls-6" d="M73.76,17s6.15-.84,7.8-3.8c0,0-.56-9.63-7.62-7.11C73.94,6.07,67.54,9,73.76,17Z"/><path class="cls-6" d="M59.45,29.12s5.45-2.95,6-6.31c0,0-3.92-8.81-9.64-4C55.77,18.85,50.82,23.87,59.45,29.12Z"/><path class="cls-6" d="M54.13,44.68s2.84-4.3,1.89-7c0,0-6.34-4.92-8.63.89C47.39,38.61,45.75,44.24,54.13,44.68Z"/><path class="cls-5" d="M53.21,56c1.71.54,2.51,2.86,1.78,5.18s-2.71,3.77-4.43,3.23-2.5-2.86-1.77-5.18S51.5,55.45,53.21,56Z"/><path class="cls-6" d="M51.57,62.17S53.91,59,53.31,57c0,0-4.58-4-6.57.29C46.74,57.27,45.24,61.46,51.57,62.17Z"/><path class="cls-5" d="M133.36,25.69c-1.61,3.47-8.15,3.87-14.62.88s-10.4-8.23-8.8-11.7S118.09,11,124.56,14,135,22.21,133.36,25.69Z"/><path class="cls-6" d="M115.27,18.45s10.75,9.07,16.41,4.93c0,0,6.79-18.47-7.14-18.75C124.54,4.63,111.8,4.37,115.27,18.45Z"/><path class="cls-8" d="M110.06,77.58c-5.06,2.9-8,.84-8,.84"/></g></g></svg>