<svg xmlns="http://www.w3.org/2000/svg" viewBox="0 0 118.35 219.69"><defs><style>.cls-1,.cls-3{fill:#bbe5be;}.cls-1{opacity:0.2;}.cls-2{fill:#ceffd4;}.cls-4{fill:#7e75d4;}.cls-5{fill:#fff;}.cls-6{fill:#ffe378;}.cls-7{fill:#538c8f;}.cls-8{fill:#726caa;}.cls-10,.cls-9{fill:#a6cca9;}.cls-12,.cls-9{opacity:0.5;}.cls-11,.cls-12,.cls-13,.cls-14{fill:none;stroke-linecap:round;stroke-linejoin:round;}.cls-11,.cls-13{stroke:#cef8d6;}.cls-11{stroke-width:4px;}.cls-12,.cls-14{stroke:#bbe5be;}</style></defs><g id="Layer_2" data-name="Layer 2"><g id="Calque_1" data-name="Calque 1"><path class="cls-1" d="M118.35,204.93c0,8.15-26.5,14.76-59.18,14.76S0,213.08,0,204.93s26.49-14.77,59.17-14.77S118.35,196.77,118.35,204.93Z"/><path class="cls-2" d="M77.22,13.28c2.41,3.88,4,8.9,4.93,14.92L95.91,54.55C100.08,74,81.14,73.19,81.14,73.19L37.68,73C8.93,73.19,21,54.31,21,54.31L39.35,28.2c1.48-7.72,4.28-13.57,7.74-17.57L59.23,8.58Z"/><path class="cls-2" d="M81.43,27a3.95,3.95,0,0,1,1.48,7.76"/><path class="cls-3" d="M48,177.22a2.49,2.49,0,0,1-2-1L19.49,141.62c-12.55-14.28-5.63-28.89,0-34.82l26.4-42.59a2.5,2.5,0,1,1,4.25,2.63L23.55,109.65a2.27,2.27,0,0,1-.33.42c-.52.55-12.8,13.72.08,28.31l.11.14L50,173.2a2.49,2.49,0,0,1-.47,3.5A2.45,2.45,0,0,1,48,177.22Z"/><path class="cls-2" d="M70.19,195.21a2.56,2.56,0,0,1-1-.22,2.51,2.51,0,0,1-1.24-3.32C78.19,169.11,74,65,73.93,64a2.5,2.5,0,0,1,5-.21c.18,4.33,4.31,106.32-6.46,130A2.5,2.5,0,0,1,70.19,195.21Z"/><path class="cls-4" d="M23,194.68s-3.78,2.06-2.21,5.42c0,0,1.21,3.72,6.16,1.42l31.47-14.59A24.76,24.76,0,0,0,52.18,172s-4,6.86-8.87,3.44A39.7,39.7,0,0,1,23,194.68"/><path class="cls-5" d="M39.87,184.48a.89.89,0,1,0,.43-1.19.89.89,0,0,0-.43,1.19"/><path class="cls-5" d="M37.73,187.44a.9.9,0,0,0,1.19.44.89.89,0,0,0,.43-1.19.89.89,0,1,0-1.62.75"/><path class="cls-5" d="M35,189.71a.9.9,0,0,0,1.19.44.9.9,0,1,0-1.19-.44"/><path class="cls-6" d="M24.16,194.15s-1.85,2-.8,4.2c0,0,.8,2,3.22,1l31.58-14.64a12.38,12.38,0,0,1,.28,2.34l-32,14.81s-4.4,2.37-6.25-1.44c0,0-2.51-3.83,3.94-6.27"/><path class="cls-4" d="M101.22,200.84s4.28.44,4.14,4.13c0,0,.33,3.9-5.12,3.71l-34.67-1.23a24.76,24.76,0,0,1,0-16.13S71.81,196.1,75,191a39.64,39.64,0,0,0,26.19,9.8"/><path class="cls-5" d="M81.69,198a.89.89,0,0,1-.92.86.9.9,0,1,1,.92-.86"/><path class="cls-5" d="M84.81,199.9A.9.9,0,1,1,84,199a.89.89,0,0,1,.86.93"/><path class="cls-5" d="M88.23,200.92a.89.89,0,0,1-.92.86.9.9,0,1,1,.06-1.79.89.89,0,0,1,.86.93"/><path class="cls-6" d="M99.91,200.81s2.51,1.17,2.38,3.56c0,0,0,2.15-2.58,2.17l-34.79-1.23a12.92,12.92,0,0,0,.65,2.26l35.21,1.25s5,.47,5.21-3.76c0,0,.82-4.5-6.08-4.25"/><path class="cls-3" d="M40.17,26.66a3.95,3.95,0,1,0-1.48,7.76"/><path class="cls-3" d="M61.23,8.92s-14.4,47.94-1.64,64.32l-22-.08c-28.75.18-16.69-18.7-16.69-18.7L39.25,28.35c1.48-7.72,4.28-13.57,7.74-17.57L61.23,8.92"/><path class="cls-7" d="M62.5,40.62a1.88,1.88,0,1,1-1.88-1.88A1.88,1.88,0,0,1,62.5,40.62Z"/><path class="cls-7" d="M71.25,43.24a1.88,1.88,0,1,1-1.88-1.87A1.88,1.88,0,0,1,71.25,43.24Z"/><path class="cls-7" d="M53.92,43a1.88,1.88,0,1,1-1.87-1.87A1.88,1.88,0,0,1,53.92,43Z"/><path class="cls-4" d="M41,20.65V0L81.23,13.06l-1.06,7.59s-5.62-9.26-19.06-9.11c0,0-4.17-.15-9.49,7.59C51.62,19.13,47.68,24,41,20.65Z"/><path class="cls-8" d="M61,6.53,40.84,0V20.65c6.68,3.34,10.62-1.52,10.62-1.52C56.78,11.39,61,11.54,61,11.54Z"/><path class="cls-3" d="M17.82,122.09A5.07,5.07,0,1,1,12.75,117,5.07,5.07,0,0,1,17.82,122.09Z"/><path class="cls-2" d="M85,132.36a5.08,5.08,0,1,1-5.08-5.08A5.07,5.07,0,0,1,85,132.36Z"/><path class="cls-9" d="M49.6,27.09a.52.52,0,0,1-.42-.22.5.5,0,0,1,.14-.69,24.24,24.24,0,0,1,22.37-1,.5.5,0,0,1-.41.91A23.25,23.25,0,0,0,49.87,27,.53.53,0,0,1,49.6,27.09Z"/><path class="cls-9" d="M49.56,31.58a.52.52,0,0,1-.42-.22.5.5,0,0,1,.14-.69,24.24,24.24,0,0,1,22.37-1,.49.49,0,0,1,.25.66.5.5,0,0,1-.66.25,23.22,23.22,0,0,0-21.4.93A.6.6,0,0,1,49.56,31.58Z"/><path class="cls-10" d="M48.54,55.49a.38.38,0,0,1-.38-.38,2.63,2.63,0,1,0-5.26,0,.39.39,0,0,1-.77,0,3.4,3.4,0,1,1,6.79,0A.38.38,0,0,1,48.54,55.49Z"/><path class="cls-10" d="M51.56,58.5a3.4,3.4,0,0,1-3.4-3.39.38.38,0,1,1,.76,0,2.64,2.64,0,0,0,5.27,0,.38.38,0,1,1,.76,0A3.39,3.39,0,0,1,51.56,58.5Z"/><path class="cls-10" d="M60.61,55.68a.38.38,0,0,1-.38-.39,2.63,2.63,0,0,0-5.26,0,.39.39,0,1,1-.77,0,3.4,3.4,0,0,1,6.79,0A.38.38,0,0,1,60.61,55.68Z"/><path class="cls-10" d="M63.62,58.69a3.4,3.4,0,0,1-3.39-3.4.38.38,0,1,1,.76,0,2.64,2.64,0,1,0,5.27,0,.38.38,0,1,1,.76,0A3.4,3.4,0,0,1,63.62,58.69Z"/><path class="cls-10" d="M72.69,55.68a.38.38,0,0,1-.39-.39,2.63,2.63,0,0,0-5.26,0,.38.38,0,1,1-.76,0,3.4,3.4,0,0,1,6.79,0A.38.38,0,0,1,72.69,55.68Z"/><path class="cls-10" d="M75.7,58.69a3.4,3.4,0,0,1-3.4-3.4.39.39,0,0,1,.77,0,2.63,2.63,0,1,0,5.26,0,.38.38,0,1,1,.76,0A3.4,3.4,0,0,1,75.7,58.69Z"/><path class="cls-5" d="M66,57.74l-1.45,3.2H62.65l-1.43-3.19A4,4,0,0,0,66,57.74Z"/><path class="cls-5" d="M54,57.5l-1.45,3.44H50.58L49.15,57.5A3.51,3.51,0,0,0,54,57.5Z"/><path class="cls-5" d="M78.1,57.74l-1.45,3.44H74.72l-1.43-3.44A3.52,3.52,0,0,0,78.1,57.74Z"/><path class="cls-11" d="M88.16,62.41s12.84,80,3.67,105.33"/><path class="cls-12" d="M83.61,64.43s3.4-4.87,8.17-3.37"/><path class="cls-11" d="M28.91,63.41s-12.83,80-3.66,105.33"/><path class="cls-13" d="M33.46,65.43s-3.4-4.87-8.16-3.37"/><path class="cls-2" d="M68.36,73s5.92.75,6,8.92l5.09-.08S79,73.58,84,73Z"/><path class="cls-3" d="M33,72.91s6.75,1,3.08,7.08l4.67,1.84s5.33-8.42,13.58-8.67Z"/><path class="cls-14" d="M101.1,169.07s-.37,4.59-4.65,5.84"/><path class="cls-14" d="M104.75,174.17a3.81,3.81,0,0,1-2.57,3.24"/><path class="cls-14" d="M14.08,165.07s-3-3.5-.84-7.41"/><path class="cls-14" d="M7.89,164.05a3.81,3.81,0,0,1-.46-4.11"/></g></g></svg>