<svg xmlns="http://www.w3.org/2000/svg" viewBox="0 0 153.04 146.95"><defs><style>.cls-1,.cls-11{fill:none;}.cls-1{stroke:#176171;stroke-linecap:round;stroke-linejoin:round;}.cls-10,.cls-2{fill:#176171;}.cls-2{opacity:0.1;}.cls-3{fill:#1c8da6;}.cls-4{fill:#20859b;}.cls-5{fill:#574a8c;opacity:0.3;}.cls-6{fill:#fff;}.cls-7{fill:#3c2806;}.cls-8{fill:#404040;}.cls-9{fill:#227a8d;}.cls-11{stroke:#404040;stroke-miterlimit:10;stroke-width:2px;}.cls-12{fill:#207586;}.cls-13{fill:#155765;}</style></defs><g id="Layer_2" data-name="Layer 2"><g id="Calque_1" data-name="Calque 1"><path class="cls-1" d="M148.89,103.08s-.37,4.58-4.66,5.83"/><path class="cls-1" d="M152.54,108.17a3.83,3.83,0,0,1-2.58,3.24"/><path class="cls-2" d="M134.24,132.19c0,8.15-26.5,14.76-59.18,14.76s-59.17-6.61-59.17-14.76,26.49-14.77,59.17-14.77S134.24,124,134.24,132.19Z"/><path class="cls-3" d="M71.8,139.43a4.25,4.25,0,0,1-1.35-.23A4,4,0,0,1,68,134.05c5.7-16,1.09-27.8,1-27.91a4,4,0,0,1,7.45-3.07c.24.58,5.89,14.59-.9,33.68A4,4,0,0,1,71.8,139.43Z"/><path class="cls-3" d="M66.77,120.91s4.42.15,3.08,6.52L78,128s.86-6.75,5.76-7Z"/><path class="cls-3" d="M90.74,136.21a4.49,4.49,0,0,1-1-.11,4,4,0,0,1-3-4.87c4.61-18.83-3.3-28.94-3.64-29.36a4,4,0,0,1,6.2-5.13c.45.54,10.9,13.41,5.27,36.4A4,4,0,0,1,90.74,136.21Z"/><path class="cls-3" d="M85,120.84s3.64.44,3,4.78l8.11-.87s.37-6.08,4-8Z"/><path class="cls-3" d="M109.24,134.79h0a4,4,0,0,1-4-4.07A123.3,123.3,0,0,0,100.93,99a4,4,0,0,1,7.73-2.28,129.29,129.29,0,0,1,4.61,34.05A4,4,0,0,1,109.24,134.79Z"/><path class="cls-3" d="M101.19,116.26s3.26-.52,3.61,3.34l7.56-3.37a15.68,15.68,0,0,1,3.84-11.62Z"/><path class="cls-3" d="M89.23,5.32c15,10.44,38.26,31.23,38.26,68.73a47,47,0,0,1-47,47H70.32a47,47,0,0,1-47-47C23.32,38,47.26,16,62.76,5.48,62.76,5.48,76.23-3.7,89.23,5.32Z"/><path class="cls-4" d="M41.57,134.79a4,4,0,0,1-4-3.7,79.54,79.54,0,0,1,4.75-34.76,4,4,0,1,1,7.42,3.14h0a72.66,72.66,0,0,0-4.14,31,4,4,0,0,1-3.69,4.35Z"/><path class="cls-4" d="M37.73,117.25s.23-9.17-4.84-14.77l16.74,13.78s-4.65,0-4.4,6.7Z"/><path class="cls-4" d="M59,136.21A4,4,0,0,1,55,133.14c-5.63-23,4.81-35.86,5.26-36.4a4,4,0,0,1,6.21,5.14c-.38.46-8.25,10.56-3.65,29.35a4,4,0,0,1-3,4.87A4.56,4.56,0,0,1,59,136.21Z"/><path class="cls-4" d="M49.63,116.26s4,1.1,4,8l8.06,1.35s-.68-5.53,4.69-4.74Z"/><path class="cls-4" d="M71.26,100.86c-1.12-1.91-3,3.19-2.21,5.24,0,.12,4.66,11.9-1,27.92a4,4,0,0,0,2.44,5.14S80.56,116.79,71.26,100.86Z"/><path class="cls-4" d="M75.06,121l-8.29-.13s4.42.15,3.08,6.52l4.09.56a38.56,38.56,0,0,0,1.12-6.79"/><path class="cls-4" d="M75.06,121.44,70.32,121a47,47,0,0,1-47-47c0-36.08,23.94-58.1,39.44-68.58A27.55,27.55,0,0,1,75.14,1.38"/><path class="cls-5" d="M100.33,31.05a1.34,1.34,0,0,1-.9-.35c-3.79-3.43-12.06-5.65-21.07-5.65H73.1c-8.53,0-16.36,2-20.43,5.12A1.34,1.34,0,1,1,51,28.05c4.52-3.51,13-5.69,22.08-5.69h5.26c9.79,0,18.56,2.43,22.87,6.35a1.35,1.35,0,0,1-.9,2.34Z"/><path class="cls-6" d="M59.22,71.05a9,9,0,1,1-5.55-11.43,9,9,0,0,1,5.55,11.43"/><path class="cls-7" d="M55.44,68.59A3.56,3.56,0,1,1,51.87,65a3.56,3.56,0,0,1,3.57,3.56"/><path class="cls-8" d="M51.42,79.22a12,12,0,1,1,12-12A12,12,0,0,1,51.42,79.22Zm0-21.64a9.66,9.66,0,1,0,9.65,9.66A9.68,9.68,0,0,0,51.42,57.58Z"/><path class="cls-8" d="M40.6,66.06a1.17,1.17,0,0,1-.89-.41L33.9,58.78a1.17,1.17,0,0,1,1.78-1.51l5.81,6.87a1.17,1.17,0,0,1-.14,1.64A1.13,1.13,0,0,1,40.6,66.06Z"/><path class="cls-6" d="M107.13,70.88A8.94,8.94,0,1,1,101.6,59.5a8.92,8.92,0,0,1,5.53,11.38"/><path class="cls-7" d="M101.69,68.43a3.56,3.56,0,1,1-3.56-3.56,3.56,3.56,0,0,1,3.56,3.56"/><path class="cls-8" d="M99.39,79.22a12,12,0,1,1,12-12A12,12,0,0,1,99.39,79.22Zm0-21.64a9.66,9.66,0,1,0,9.66,9.66A9.67,9.67,0,0,0,99.39,57.58Z"/><path class="cls-8" d="M110.21,66.06a1.15,1.15,0,0,1-.75-.28,1.17,1.17,0,0,1-.14-1.64l5.81-6.87a1.17,1.17,0,0,1,1.65-.13,1.16,1.16,0,0,1,.13,1.64l-5.81,6.87A1.17,1.17,0,0,1,110.21,66.06Z"/><path class="cls-6" d="M44.42,87.46s1.44.09,10.42.91l-6.37,7.76Z"/><path class="cls-6" d="M103.52,87.75s-1.44.09-10.42.91l6.37,7.77Z"/><path class="cls-9" d="M77.27,89.53c-8.41,0-17.61-.78-35.71-2.34a1.34,1.34,0,1,1,.24-2.67c35.94,3.09,36.55,3.09,66.14,0a1.33,1.33,0,0,1,1.47,1.2,1.34,1.34,0,0,1-1.19,1.47C93.3,88.75,85.68,89.53,77.27,89.53Z"/><path class="cls-9" d="M57.39,53.29a1.34,1.34,0,0,1-.76-.24c-5.21-3.56-9.45-.66-9.49-.63a1.35,1.35,0,0,1-1.55-2.2c.24-.17,5.82-4,12.56.62a1.35,1.35,0,0,1,.35,1.87A1.36,1.36,0,0,1,57.39,53.29Z"/><path class="cls-9" d="M103.64,53.29a1.31,1.31,0,0,1-.75-.24c-5.22-3.56-9.46-.66-9.5-.63a1.34,1.34,0,1,1-1.54-2.2c.23-.17,5.81-4,12.55.62a1.34,1.34,0,0,1,.35,1.87A1.36,1.36,0,0,1,103.64,53.29Z"/><path class="cls-10" d="M104.23,29s8.69,13.22,17,15.11c0,0-.37-23-17-32.11,0,0-2.27-4.15,3.4-4.15,0,0-4.53-3.59-7,1.89,0,0-11-11.52-30.59-9.45,0,0-18.13,4.92-28.52,1.33,0,0,.19,5.66,8.5,8.49,0,0-9.82,2.27-14.73,1.14,0,0,3,6,8.88,5.85a38.32,38.32,0,0,0-14,16s4-2.07,7.37-1.88c0,0-7.55,6.6-7.37,11.7,0,0,8.12-10.38,14-10.38C44.18,32.56,84.21,44.83,104.23,29Z"/><path class="cls-4" d="M11.65,106.72a4,4,0,0,1-1.2-5.33A79.88,79.88,0,0,1,34.16,75.51a4,4,0,0,1,4.31,6.81h0a73,73,0,0,0-21,23.1,4,4,0,0,1-5.5,1.48Z"/><path class="cls-4" d="M18.48,90.11s5.18-7.72,4.84-15.83l6.81,24.11s-4.12-5.3-8.73.68Z"/><path class="cls-3" d="M139.06,106.52a4,4,0,0,0,1.19-5.32,79.66,79.66,0,0,0-23.7-25.88,4,4,0,1,0-4.31,6.81h0a72.81,72.81,0,0,1,21,23.1,4,4,0,0,0,5.51,1.47Z"/><path class="cls-3" d="M132.22,89.92s-5.17-7.72-4.84-15.84l-6.8,24.12s4.11-5.31,8.73.68Z"/><path class="cls-11" d="M62.14,68s3.71-6.75,13.27-6.75c0,0,10.45,0,13.24,6.91"/><path class="cls-1" d="M8.83,109.41S4.25,109,3,104.76"/><path class="cls-1" d="M3.73,113.06A3.79,3.79,0,0,1,.5,110.48"/><path class="cls-12" d="M90.2,126.92a1.17,1.17,0,1,1,1.65-.17,1.16,1.16,0,0,1-1.65.17"/><path class="cls-12" d="M92.63,129.75a.82.82,0,0,1-.12-1.15.81.81,0,1,1,.12,1.15"/><path class="cls-12" d="M88.2,131.61a.81.81,0,1,1,1-1.26.81.81,0,1,1-1,1.26"/><path class="cls-12" d="M91.55,134.06a.35.35,0,0,1-.06-.5.36.36,0,1,1,.56.45.34.34,0,0,1-.5.05"/><path class="cls-12" d="M93.53,121.18a.81.81,0,1,1,1-1.26.8.8,0,0,1,.11,1.14.81.81,0,0,1-1.14.12"/><path class="cls-12" d="M56.82,119a1.17,1.17,0,1,1,1.65-.16,1.17,1.17,0,0,1-1.65.16"/><path class="cls-12" d="M59.25,121.84a.82.82,0,1,1,1.15-.12.82.82,0,0,1-1.15.12"/><path class="cls-12" d="M54.83,123.7a.81.81,0,0,1-.12-1.14.8.8,0,0,1,1.14-.12.81.81,0,1,1-1,1.26"/><path class="cls-12" d="M58.17,126.15a.36.36,0,1,1,.46-.55.36.36,0,0,1,0,.5.36.36,0,0,1-.51.05"/><path class="cls-12" d="M60.15,113.27a.81.81,0,1,1,1-1.26.81.81,0,1,1-1,1.26"/><path class="cls-12" d="M40.11,124.81a1.17,1.17,0,0,1,1.2-2,1.17,1.17,0,1,1-1.2,2"/><path class="cls-12" d="M42.92,127.26a.83.83,0,0,1-.29-1.12A.82.82,0,0,1,44,127a.82.82,0,0,1-1.12.29"/><path class="cls-12" d="M38.81,129.74a.81.81,0,0,1-.28-1.12.82.82,0,1,1,.28,1.12"/><path class="cls-12" d="M42.47,131.68a.36.36,0,1,1,.37-.61.36.36,0,1,1-.37.61"/><path class="cls-12" d="M42.58,118.65a.81.81,0,1,1,1.11-.28.82.82,0,0,1-1.11.28"/><path class="cls-12" d="M108.2,112.17a1.17,1.17,0,1,0-1.65-.17,1.17,1.17,0,0,0,1.65.17"/><path class="cls-12" d="M105.77,115a.81.81,0,0,0-1-1.27.82.82,0,0,0-.12,1.15.81.81,0,0,0,1.14.12"/><path class="cls-12" d="M110.2,116.86a.82.82,0,1,0-1.15-.12.82.82,0,0,0,1.15.12"/><path class="cls-12" d="M106.85,119.31a.36.36,0,1,0-.5,0,.36.36,0,0,0,.5,0"/><path class="cls-12" d="M104.88,106.43a.82.82,0,0,0,.11-1.15.81.81,0,1,0-1.26,1,.82.82,0,0,0,1.15.12"/><path class="cls-12" d="M75.57,122.63a1.17,1.17,0,1,0-1.56-.54,1.16,1.16,0,0,0,1.56.54"/><path class="cls-12" d="M72.56,124.82a.81.81,0,1,0-1.09-.38.81.81,0,0,0,1.09.38"/><path class="cls-12" d="M76.44,127.65a.81.81,0,1,0-1.09-.37.81.81,0,0,0,1.09.37"/><path class="cls-12" d="M72.63,129.27a.35.35,0,0,0,.16-.48.36.36,0,0,0-.48-.17.38.38,0,0,0-.17.49.36.36,0,0,0,.49.16"/><path class="cls-12" d="M73.65,116.28a.82.82,0,0,0,.37-1.09.81.81,0,1,0-.37,1.09"/><path class="cls-12" d="M128.39,90.16a1.17,1.17,0,1,0-2-1.14,1.17,1.17,0,0,0,2,1.14"/><path class="cls-12" d="M127.19,93.68a.81.81,0,1,0-1.1.32.81.81,0,0,0,1.1-.32"/><path class="cls-12" d="M132,93.76a.81.81,0,1,0-1.1.32.81.81,0,0,0,1.1-.32"/><path class="cls-12" d="M129.81,97.28a.36.36,0,0,0-.14-.49.37.37,0,0,0-.49.14.36.36,0,0,0,.14.49.35.35,0,0,0,.49-.14"/><path class="cls-12" d="M123.16,86.07a.82.82,0,0,0-.32-1.11.82.82,0,1,0-.79,1.43.81.81,0,0,0,1.11-.32"/><path class="cls-12" d="M23.65,87.6a1.17,1.17,0,1,1,1.63.34,1.19,1.19,0,0,1-1.63-.34"/><path class="cls-12" d="M25.12,91a.82.82,0,0,1,1.36-.9.82.82,0,1,1-1.36.9"/><path class="cls-12" d="M20.34,91.48a.82.82,0,1,1,1.13.23.82.82,0,0,1-1.13-.23"/><path class="cls-12" d="M22.8,94.82a.36.36,0,1,1,.6-.4.36.36,0,0,1-.11.5.35.35,0,0,1-.49-.1"/><path class="cls-12" d="M28.55,83.12a.82.82,0,0,1,1.36-.9.82.82,0,1,1-1.36.9"/><path class="cls-13" d="M74.91,0c-1.36,0-3.67.13-5.13.29,0,0-18.13,4.91-28.51,1.32,0,0,.18,5.67,8.49,8.5,0,0-9.82,2.26-14.73,1.13,0,0,3,6,8.88,5.86a38.18,38.18,0,0,0-14,16s4-2.08,7.36-1.89c0,0-7.55,6.61-7.36,11.71,0,0,8.12-10.39,14-10.39a139.88,139.88,0,0,0,31.17,4.5"/></g></g></svg>