<svg xmlns="http://www.w3.org/2000/svg" viewBox="0 0 181.97 209.52"><defs><style>.cls-1,.cls-12{fill:#41356a;}.cls-1{opacity:0.1;}.cls-2{fill:#554687;}.cls-11,.cls-15,.cls-3{fill:none;stroke-linecap:round;}.cls-3{stroke:#4c4280;stroke-width:6px;}.cls-15,.cls-3{stroke-linejoin:round;}.cls-4{fill:#62539d;}.cls-5{fill:#41386a;}.cls-6{fill:#fff;}.cls-7{fill:#7256c3;}.cls-8{fill:#4c407c;}.cls-9{fill:#534789;}.cls-10{fill:#ff5a58;}.cls-11{stroke:#62539d;stroke-miterlimit:10;}.cls-11,.cls-15{stroke-width:2px;}.cls-13{opacity:0.6;}.cls-14{opacity:0.8;}.cls-15{stroke:#7256c3;opacity:0.2;}</style></defs><g id="Layer_2" data-name="Layer 2"><g id="Calque_1" data-name="Calque 1"><path class="cls-1" d="M156.46,194.85c0,8.1-30,14.67-67,14.67s-67-6.57-67-14.67,30-14.66,67-14.66S156.46,186.75,156.46,194.85Z"/><path class="cls-2" d="M112.51,29.06a3.78,3.78,0,1,1,6.7,3.52"/><path class="cls-2" d="M60.75,31.78a3.79,3.79,0,0,1,6.75-3.43"/><path class="cls-3" d="M116.33,45.18s9.4-33.19,52-25.38"/><path class="cls-4" d="M181,18.2A11.83,11.83,0,1,1,169.14,6.37,11.83,11.83,0,0,1,181,18.2"/><path class="cls-3" d="M65.36,46.25S56,13.06,13.35,20.87"/><path class="cls-4" d="M.71,19.27A11.83,11.83,0,1,0,12.54,7.44,11.83,11.83,0,0,0,.71,19.27"/><path class="cls-5" d="M177.75,22.84A9.58,9.58,0,1,1,173,10.15a9.57,9.57,0,0,1,4.71,12.69"/><path class="cls-6" d="M177,23a8.29,8.29,0,1,1-5.12-10.55A8.28,8.28,0,0,1,177,23"/><path class="cls-5" d="M167,23.14a2.86,2.86,0,1,1-2.86-2.86A2.86,2.86,0,0,1,167,23.14"/><path class="cls-5" d="M3.45,22.15a9.58,9.58,0,1,0,6.09-12.1,9.58,9.58,0,0,0-6.09,12.1"/><path class="cls-6" d="M4.18,22.38a8.29,8.29,0,1,0,6.25-9.92,8.29,8.29,0,0,0-6.25,9.92"/><path class="cls-5" d="M14.14,23.63A2.86,2.86,0,1,0,17.3,21.1a2.86,2.86,0,0,0-3.16,2.53"/><path class="cls-7" d="M145.33,78.44a55.1,55.1,0,1,1-55.1-55.1,55.1,55.1,0,0,1,55.1,55.1"/><path class="cls-4" d="M90.13,23.34a55.1,55.1,0,0,0,0,110.2"/><path class="cls-8" d="M127.09,72.53c0,13.94-22.77,38.34-36.7,38.34s-35.07-26-35.07-40,21.13-7.22,35.07-7.22,36.7-5.08,36.7,8.86"/><path class="cls-9" d="M121.67,74.47c0,11.81-19.29,32.48-31.1,32.48s-29.7-22.06-29.7-33.87S78.77,67,90.57,67s31.1-4.3,31.1,7.5"/><path class="cls-10" d="M75.45,99.09s13.86-13.33,32.7-1.43c0,0-12.4,11.27-18.57,9.64a29.2,29.2,0,0,1-14.13-8.21"/><path class="cls-7" d="M120.87,124.25c-15,7-16,53.31-16,53.31-.24,4.24-3.22,6.2-5.31,6-2.71-.22-4.78-1.71-5-5.49,0-.17,0-.35,0-.54,0,0,0-36.15-3.67-44"/><path class="cls-11" d="M1,6.37S6.85-.58,17.14,3.09"/><path class="cls-11" d="M181,5.34s-5.85-6.94-16.14-3.27"/><path class="cls-8" d="M68.76,51.2a2.42,2.42,0,1,1-2.42-2.42,2.42,2.42,0,0,1,2.42,2.42"/><path class="cls-8" d="M77.14,46.13a1.69,1.69,0,1,1-3.37,0,1.69,1.69,0,0,1,3.37,0"/><path class="cls-8" d="M112.86,51.54a1,1,0,1,0,1-1,1,1,0,0,0-1,1"/><path class="cls-8" d="M102.63,46.09a1.69,1.69,0,1,0,1.69-1.69,1.69,1.69,0,0,0-1.69,1.69"/><path class="cls-10" d="M60.8,73.27s15.91-10.9,60.61-.51c0,0,0-9.14-22.82-6,0,0-6.9.76-20.42-.56,0,0-18.17-4.17-17.37,7"/><path class="cls-6" d="M97.54,68.43A8.14,8.14,0,0,1,88.82,76c-4.49-.33-7.45-4.93-7.12-9.42a134,134,0,0,0,15.88.3Z"/><path class="cls-6" d="M109.67,67.32a5.55,5.55,0,0,1-6,5.14,5.16,5.16,0,0,1-4.85-5.76,73.42,73.42,0,0,1,10.81-.54Z"/><path class="cls-6" d="M69.78,66.92a5.55,5.55,0,0,0,6,5.13,5.05,5.05,0,0,0,4.85-5.64S73,65.2,69.81,65.49Z"/><path class="cls-6" d="M120.13,71.46c-.18.87-2.09,2.32-5,1.49a5.15,5.15,0,0,1-3.62-6.59s6.4.26,8.9,4Z"/><path class="cls-6" d="M61.31,72c1,.87,1.22.79,3.08.33A5.11,5.11,0,0,0,68,65.68S62,66,60.9,71Z"/><path class="cls-6" d="M82.73,104.62a8.14,8.14,0,0,1,8.72-7.53c4.49.33,7.25,3.25,6.92,7.74,0,0-7,6.12-15.64-.21Z"/><path class="cls-6" d="M73.73,95.5a5.57,5.57,0,0,1,7.84.68,5.17,5.17,0,0,1-.75,7.49,33.38,33.38,0,0,1-7.95-7.42Z"/><path class="cls-6" d="M108.75,96.72a5.55,5.55,0,0,0-7.84-.65,5.24,5.24,0,0,0-.54,7.57,76.94,76.94,0,0,0,8.5-6.75Z"/><path class="cls-6" d="M67.79,85.91a5.07,5.07,0,0,1,4.69,1.79,5.12,5.12,0,0,1-.41,7.51,77.66,77.66,0,0,1-6.53-8.88Z"/><path class="cls-6" d="M115.21,88c-.28-.44-1.41-1.21-3.28-.76-3,.74-3.07,5.86-2.25,8.82a59.12,59.12,0,0,0,6.19-7.25Z"/><path class="cls-4" d="M59.37,124.08c13.42,6.92,16.71,53.48,16.71,53.48.24,4.24,3.22,6.2,5.31,6,2.7-.22,4.78-1.71,5-5.49,0-.17,0-.35,0-.54,0,0,0-36.15,3.68-44"/><path class="cls-12" d="M91,54.32c10.61,14.17,27.82,12.08,27.82,12.08,23.34-2.78,21.38-23.66,21.38-23.66-1.14,3-6.12,6.36-6.12,6.36C128.46,52.49,123,46,123,46a29.27,29.27,0,0,0-15-9.79,16.17,16.17,0,0,0-17.46,7.92l-.09.16v-.16A16.16,16.16,0,0,0,73,36.21,29.32,29.32,0,0,0,57.86,46s-5.46,6.49-11,3.1c0,0-5.07-3.38-6.12-6.36,0,0-2,20.88,21.38,23.66,0,0,17.21,2.09,27.91-12.08l.4-.69Z"/><g class="cls-13"><g class="cls-14"><path class="cls-8" d="M72.43,110.18A2.43,2.43,0,1,0,70,112.61a2.43,2.43,0,0,0,2.43-2.43"/><path class="cls-8" d="M72,119.91a1.69,1.69,0,1,0-1.69,1.69A1.69,1.69,0,0,0,72,119.91"/><path class="cls-8" d="M80.8,115.25a1.69,1.69,0,1,0-1.68,1.68,1.69,1.69,0,0,0,1.68-1.68"/><path class="cls-8" d="M80.37,123.81a.75.75,0,0,0-.74-.75.76.76,0,0,0-.75.75.75.75,0,0,0,.75.74.74.74,0,0,0,.74-.74"/><path class="cls-8" d="M57.12,110.18a1.69,1.69,0,1,0-1.69,1.69,1.69,1.69,0,0,0,1.69-1.69"/></g><g class="cls-14"><path class="cls-8" d="M114,119.25a2.43,2.43,0,1,1-2.43-2.43,2.43,2.43,0,0,1,2.43,2.43"/><path class="cls-8" d="M113.65,109.52a1.69,1.69,0,1,1-1.69-1.69,1.69,1.69,0,0,1,1.69,1.69"/><path class="cls-8" d="M122.41,114.18a1.69,1.69,0,1,1-1.68-1.68,1.69,1.69,0,0,1,1.68,1.68"/><path class="cls-8" d="M122,105.62a.74.74,0,1,1-.74-.75.75.75,0,0,1,.74.75"/><path class="cls-8" d="M98.73,119.25A1.69,1.69,0,1,1,97,117.56a1.69,1.69,0,0,1,1.69,1.69"/></g></g><path class="cls-15" d="M91.06,47.77s8.5-10,24,2.5c0,0,6,5,9.5,4.5"/><path class="cls-15" d="M91.39,50.43s6-2.66,14,4a14.53,14.53,0,0,0,7.67,3.34"/><path class="cls-15" d="M89,47.56s-8.5-10-24,2.5c0,0-6,5-9.5,4.5"/><path class="cls-15" d="M88.7,50.23s-6-2.67-14,4A14.47,14.47,0,0,1,67,57.56"/><path class="cls-12" d="M132.05,185.48s4.44.29,4.43,4.12c0,0,.48,4-5.16,4H95.47A25.54,25.54,0,0,1,94.83,177s6.68,4.71,9.81-.63a41,41,0,0,0,27.41,9.16"/><path class="cls-6" d="M111.78,183.26a.93.93,0,1,1-.93-.93.93.93,0,0,1,.93.93"/><path class="cls-6" d="M115.07,185.11a.93.93,0,1,1-.93-.93.93.93,0,0,1,.93.93"/><path class="cls-6" d="M118.64,186a.93.93,0,1,1-1.85,0,.93.93,0,0,1,1.85,0"/><path class="cls-7" d="M130.7,185.5s2.63,1.12,2.58,3.59c0,0,.12,2.21-2.58,2.33h-36a13,13,0,0,0,.76,2.32h36.41s5.15.3,5.23-4.08c0,0,.69-4.68-6.42-4.16"/><path class="cls-12" d="M49,185.86s-4.43.29-4.42,4.11c0,0-.49,4,5.15,4H85.54a25.58,25.58,0,0,0,.65-16.66s-6.68,4.71-9.81-.64A41,41,0,0,1,49,185.86"/><path class="cls-6" d="M69.24,183.64a.92.92,0,1,0,.92-.93.92.92,0,0,0-.92.93"/><path class="cls-6" d="M66,185.49a.92.92,0,1,0,.92-.93.92.92,0,0,0-.92.93"/><path class="cls-6" d="M62.37,186.41a.93.93,0,1,0,.93-.93.93.93,0,0,0-.93.93"/><path class="cls-7" d="M50.31,185.88s-2.63,1.11-2.57,3.58c0,0-.12,2.22,2.57,2.34h36a13,13,0,0,1-.76,2.31H49.12s-5.15.31-5.23-4.07c0,0-.69-4.68,6.42-4.16"/></g></g></svg>