<svg xmlns="http://www.w3.org/2000/svg" viewBox="0 0 133.8 177.37"><defs><style>.cls-1,.cls-11,.cls-13,.cls-14,.cls-5,.cls-8{fill:none;}.cls-1{stroke:#00a6e9;}.cls-1,.cls-11,.cls-14,.cls-5,.cls-8{stroke-linecap:round;stroke-linejoin:round;}.cls-1,.cls-11,.cls-13,.cls-5{stroke-width:3px;}.cls-2,.cls-6{fill:#0c7ea9;}.cls-2{opacity:0.1;}.cls-3{fill:#00a6e9;}.cls-10,.cls-4{fill:#ffe378;}.cls-5{stroke:#0c7ea9;}.cls-7{fill:#0a99d1;}.cls-8{stroke:#0c80ac;}.cls-9{fill:#0d7ca6;}.cls-10{opacity:0.2;}.cls-11{stroke:#0a99d1;}.cls-12{fill:#126f95;}.cls-13,.cls-14{stroke:#126f95;}.cls-13{stroke-miterlimit:10;}</style></defs><g id="Layer_2" data-name="Layer 2"><g id="Calque_1" data-name="Calque 1"><path class="cls-1" d="M108.31,45.77s6.51,2.24,11.1-2.91a8,8,0,0,0,0-5.18"/><path class="cls-1" d="M124.93,40.66c-3-1.17-5.52,2.2-5.52,2.2"/><path class="cls-1" d="M108.44,60.61s6.51,2.24,11.1-2.91a7.94,7.94,0,0,0,0-5.18"/><path class="cls-1" d="M125.06,55.51c-3-1.18-5.52,2.19-5.52,2.19"/><path class="cls-1" d="M108.44,76.51s6.51,2.24,11.1-2.91a7.94,7.94,0,0,0,0-5.18"/><path class="cls-1" d="M125.06,71.41c-3-1.18-5.52,2.19-5.52,2.19"/><path class="cls-2" d="M70.13,169.91c0,4.12-8.88,7.46-19.83,7.46S30.48,174,30.48,169.91s8.87-7.46,19.82-7.46S70.13,165.79,70.13,169.91Z"/><path class="cls-2" d="M112.8,169.91c0,4.12-8.88,7.46-19.83,7.46S73.14,174,73.14,169.91,82,162.45,93,162.45,112.8,165.79,112.8,169.91Z"/><path class="cls-3" d="M38.8,90.08l61.66.44s8.51-1,9.17-9.19V49.5a40.5,40.5,0,0,0-81,0V80.33S28,89.15,38.8,90.08Z"/><path class="cls-3" d="M57.13,14a7.23,7.23,0,0,1-4.75-5.25c3.75,2.75,8,.5,8,.5,2.5-2-3.5-5.5-3.5-5.5,10-3.5,17.5,4.5,17.5,4.5S79.88,4.5,83.63,7c0,0-3,3.5-5.5,3.5"/><path class="cls-3" d="M92.55,171.75a6,6,0,0,0,4.29-10.2c-8.45-8.61-1.52-16.08-.7-16.9l.13-.13c13.41-14.34,5.22-31.42-1.1-38.61-6.57-8.5-.17-19.68-.1-19.8a6,6,0,0,0-10.36-6c-.44.75-10.6,18.53,1.13,33.41l.24.28c1.1,1.25,10.6,12.68,1.48,22.52-6.54,6.64-11.7,21,.71,33.68A6,6,0,0,0,92.55,171.75Z"/><path class="cls-3" d="M104.7,89.07s-14.19,5.68-11.48,13.47c0,0-3.83-2.37-.83-13.37Z"/><path class="cls-3" d="M80.51,101.21s-.46-11-13.62-11.71l17-.83Z"/><path class="cls-4" d="M81.78,146.19c-2.14,7-1.34,15.73,6.54,23.76a6,6,0,1,0,8.56-8.4c-6.33-6.45-4-12.27-2.11-15.12Z"/><path class="cls-5" d="M73.63,11.34s18-2,31.34,18.66"/><path class="cls-6" d="M82.13,11.64,90,0s14.27,3.09,18.67,13.65L100.8,24.49S91,12.45,82.13,11.64Z"/><path class="cls-7" d="M28.63,81.5v-32A40.51,40.51,0,0,1,69.13,9V90.17l-31-.13S30,90,28.63,81.5Z"/><path class="cls-8" d="M99,40.93a29.36,29.36,0,0,1-58.71,0"/><path class="cls-8" d="M37.68,42.12s2.08-2.95,4.63,0"/><path class="cls-8" d="M97.21,41.47s1.63-2.07,3.71.65"/><path class="cls-8" d="M53.2,40.72s4.63-5.8,9.27.21"/><path class="cls-8" d="M76.23,40.72s4.63-5.8,9.27.21"/><path class="cls-9" d="M68.6,51.44s4.27-3.19,8.27,1.68c0,0,1.15,1.91,4.77,1.7a1.92,1.92,0,0,0,1.61-1.38,2.78,2.78,0,0,0-2.32-3.17s-2.22-.4-2.55.87c0,0-.13.71.71.79,0,0,1.1.32.67,1.16,0,0-.48.81-1.76.08a2.34,2.34,0,0,1-.94-3.08s.94-1.92,4-1.38c0,0,5.45,1,3.59,7.14,0,0-.75,3.1-5.92,4,0,0-6.21.92-10-2.86"/><path class="cls-9" d="M68.8,51.43s-4.27-3.19-8.27,1.67c0,0-1.15,1.92-4.76,1.7a1.92,1.92,0,0,1-1.62-1.37,2.78,2.78,0,0,1,2.32-3.17s2.22-.4,2.55.87c0,0,.13.7-.7.78,0,0-1.11.33-.68,1.16,0,0,.49.82,1.76.09a2.34,2.34,0,0,0,.94-3.08s-.94-1.92-4-1.38c0,0-5.45,1-3.59,7.13,0,0,.76,3.11,5.92,4.05,0,0,6.21.92,10-2.86"/><path class="cls-7" d="M50.89,171.75a6,6,0,0,1-4.29-10.2c8.44-8.61,1.51-16.08.69-16.9l-.12-.13c-13.41-14.34-5.22-31.42,1.1-38.61,6.56-8.5.17-19.68.1-19.8a6,6,0,0,1,10.36-6c.44.75,10.6,18.53-1.13,33.41l-.24.28c-1.1,1.25-10.6,12.68-1.48,22.52,6.54,6.64,11.7,21-.71,33.68A6,6,0,0,1,50.89,171.75Z"/><path class="cls-7" d="M38.22,89s13.79,2.17,12,13.5c0,0,3.83-2.37.83-13.37Z"/><path class="cls-7" d="M62.93,101.21s-.49-8.81,6.2-11l-9.58-1.5Z"/><path class="cls-4" d="M61.71,146.19c2.13,7,1.33,15.73-6.54,23.76a6,6,0,1,1-8.57-8.4c6.33-6.45,4-12.27,2.12-15.12Z"/><path class="cls-7" d="M69,4.46a15.62,15.62,0,0,0-12-.71s6,3.5,3.5,5.5c0,0-4.25,2.25-8-.5A7.23,7.23,0,0,0,57.22,14H69.13"/><path class="cls-10" d="M109.51,51.25c-3,0-5.38,3.53-5.38,7.88S106.54,67,109.51,67"/><ellipse class="cls-10" cx="97.26" cy="79.25" rx="4.87" ry="5.25"/><path class="cls-10" d="M45.3,17.09c2,.5,2.58,2,2.58,4.16A5.07,5.07,0,0,1,43,26.5a4.61,4.61,0,0,1-4.63-3.33S44.25,16.82,45.3,17.09Z"/><path class="cls-10" d="M94.09,20a6.33,6.33,0,0,1-12.37-1.23A5.55,5.55,0,0,1,84,14.32s6.48,2.49,9.94,5.54Z"/><path class="cls-10" d="M70.42,29.63a4.08,4.08,0,1,1-8.13,0,4.08,4.08,0,1,1,8.13,0Z"/><path class="cls-10" d="M51.42,72.88a4.08,4.08,0,1,1-4.06-4.38A4.23,4.23,0,0,1,51.42,72.88Z"/><path class="cls-10" d="M35.52,89.6c2.21.66,3.65-3.11,3.65-5.72a5.93,5.93,0,0,0-5.69-6.13,5.61,5.61,0,0,0-4.88,3A9.7,9.7,0,0,0,35.52,89.6Z"/><path class="cls-11" d="M31.06,41.77S24.55,44,20,38.86a8,8,0,0,1,0-5.18"/><path class="cls-11" d="M14.44,36.66c3-1.17,5.51,2.2,5.51,2.2"/><path class="cls-11" d="M30.93,56.61s-6.51,2.24-11.11-2.91a8,8,0,0,1,0-5.18"/><path class="cls-11" d="M14.31,51.51c3-1.18,5.51,2.19,5.51,2.19"/><path class="cls-11" d="M30.93,72.51s-6.51,2.24-11.11-2.91a8,8,0,0,1,0-5.18"/><path class="cls-11" d="M14.31,67.41c3-1.18,5.51,2.19,5.51,2.19"/><path class="cls-12" d="M82.65,10.92,90,0s6.61,1.71,10.73,4.67L92.44,15.59S89.65,13.09,82.65,10.92Z"/><path class="cls-13" d="M92.65,13.88S98,18,102.52,22"/><path class="cls-14" d="M126.94,82.39s5.36,1.72,6.36-4.69"/><path class="cls-14" d="M130.34,86.75s2.41.77,2.86-2.11"/><path class="cls-14" d="M5,52.09s-1.72,5.36,4.69,6.36"/><path class="cls-14" d="M.59,55.49S-.18,57.9,2.7,58.35"/></g></g></svg>