<svg xmlns="http://www.w3.org/2000/svg" viewBox="0 0 151.04 209.99"><defs><style>.cls-1,.cls-10,.cls-11,.cls-14,.cls-7,.cls-9{fill:none;stroke-linecap:round;}.cls-1{stroke:#64b87b;}.cls-1,.cls-10{stroke-miterlimit:10;stroke-width:6px;}.cls-2{fill:#3b704a;opacity:0.1;}.cls-3{fill:#39e083;}.cls-4{fill:#64b87b;opacity:0.6;}.cls-5{fill:#65b97b;}.cls-12,.cls-6{fill:#fff;}.cls-6{opacity:0.3;}.cls-7{stroke:#5ead73;}.cls-11,.cls-14,.cls-7,.cls-9{stroke-linejoin:round;}.cls-7,.cls-9{stroke-width:2px;}.cls-8{fill:#579d69;}.cls-9{stroke:#3b704a;}.cls-10,.cls-11{stroke:#39e083;}.cls-11{stroke-width:4px;}.cls-13{fill:#ff5a58;}.cls-14{stroke:#e65959;stroke-width:0.5px;}</style></defs><g id="Layer_2" data-name="Layer 2"><g id="Calque_1" data-name="Calque 1"><path class="cls-1" d="M91.74,124.7s15.29,8.49,27.92-2.93"/><path class="cls-2" d="M105,201.13C105,206,91.42,210,74.66,210s-30.33-4-30.33-8.86,13.58-8.87,30.33-8.87S105,196.23,105,201.13Z"/><path class="cls-3" d="M45.82,119.32,56.4,75.52C61.66,52.2,81.15,36.72,99.93,41s29.75,26.58,24.48,49.9l-23.74,47.29S82,168,80.91,187.41c0,0,5.79,12.31-3.93,15.68,0,0-13,2.7-11.79-12.59,0,0,7.22-18.36-7.54-24.25,0,0-10.95-1.11-20.76,11.47,0,0-7.89,9.45-15.23,1.47,0,0-4.82-7,4.7-16.61,0,0,14.75-16.6,19.46-43.26"/><path class="cls-4" d="M99.71,41.44C80.93,37.21,61.44,52.68,56.18,76L45.82,119.32s-6.82,32-21.2,45c0,0-9,10.65-.7,16.85,0,0,6.26,4.32,12.38-3.1,0,0,5.41-5.49,6-5.93,0,0,8.55-6.67,16.49-5.7,0,0,20.11,3.21,41.18-125.44"/><path class="cls-5" d="M50.88,96.71,55,83.32s11.79-2.18,13.1-12.94c0,0,21.42-7.92,47.2,7.75,0,0-.9,13.33,5.69,17.68l-3.26,9s10.78-.58,14.1-3.59c0,0,26.66-13.31,10.45-31.51,0,0,15.74-26.23-14.86-40.4,0,0,1.79-24.86-26.78-29.09,0,0-20.41-3.81-30.66,19.66,0,0-34,3.57-23.66,35.44,0,0-19.85,9.55-3.94,26.8C42.36,82.17,49.63,88.94,50.88,96.71Z"/><path class="cls-3" d="M126.67,30.31A27.54,27.54,0,1,1,102.05.14,27.54,27.54,0,0,1,126.67,30.31Z"/><path class="cls-3" d="M146.51,56.8A15.36,15.36,0,1,1,132.78,40,15.36,15.36,0,0,1,146.51,56.8Z"/><path class="cls-3" d="M78.92,40.35A16.6,16.6,0,1,1,64.08,22.16,16.61,16.61,0,0,1,78.92,40.35Z"/><path class="cls-6" d="M65.14,33.67A8.58,8.58,0,1,1,57.5,24,8.73,8.73,0,0,1,65.14,33.67Z"/><path class="cls-6" d="M146.36,55.53c-.66,6.54-5.39,11.41-10.56,10.89s-8.82-6.25-8.16-12.79S133,42.22,138.2,42.74,147,49,146.36,55.53Z"/><path class="cls-6" d="M121.79,20.78c-.92,9.12-10.73,15.6-21.91,14.47S80.4,25.8,81.32,16.68,92.06,1.08,103.23,2.21,122.72,11.66,121.79,20.78Z"/><path class="cls-5" d="M63.63,53.4A18.47,18.47,0,1,1,80.14,73.64,18.45,18.45,0,0,1,63.63,53.4Z"/><path class="cls-3" d="M66.59,53A16.6,16.6,0,1,1,81.43,71.17,16.59,16.59,0,0,1,66.59,53Z"/><path class="cls-6" d="M80.37,59.66A8.58,8.58,0,1,1,88,69.34,8.73,8.73,0,0,1,80.37,59.66Z"/><path class="cls-5" d="M117.17,56.92a18.47,18.47,0,1,1,24.51-9A18.47,18.47,0,0,1,117.17,56.92Z"/><path class="cls-3" d="M120.46,55.24a16.6,16.6,0,1,1,22-8.12A16.6,16.6,0,0,1,120.46,55.24Z"/><path class="cls-6" d="M131.27,44.38a8.58,8.58,0,1,1,7.19-15.58,8.58,8.58,0,1,1-7.19,15.58Z"/><path class="cls-5" d="M103.56,39.34A23.42,23.42,0,1,1,79.05,17.07,23.42,23.42,0,0,1,103.56,39.34Z"/><path class="cls-3" d="M99.74,36.63a21.05,21.05,0,1,1-22-20A21,21,0,0,1,99.74,36.63Z"/><path class="cls-6" d="M81.2,30.84a10.88,10.88,0,1,1-21.73,1,10.88,10.88,0,1,1,21.73-1Z"/><path class="cls-5" d="M127.78,66c-.94,9.2-9.52,15.87-19.17,14.89s-16.73-9.23-15.8-18.43S102.33,46.62,112,47.6,128.71,56.83,127.78,66Z"/><path class="cls-3" d="M127.69,66.85A15.36,15.36,0,1,1,114,50,15.36,15.36,0,0,1,127.69,66.85Z"/><path class="cls-6" d="M127.54,65.58C126.88,72.12,122.15,77,117,76.47s-8.82-6.25-8.16-12.78,5.39-11.42,10.56-10.89S128.2,59.05,127.54,65.58Z"/><path class="cls-5" d="M151,84.23c-.93,9.2-9.51,15.86-19.17,14.88S115.07,89.88,116,80.68s9.51-15.86,19.17-14.88S151.89,75,151,84.23Z"/><path class="cls-3" d="M150.88,85.05a15.36,15.36,0,1,1-13.73-16.83A15.36,15.36,0,0,1,150.88,85.05Z"/><path class="cls-6" d="M150.73,83.79c-.66,6.53-5.39,11.41-10.56,10.89s-8.82-6.25-8.16-12.79S137.4,70.48,142.57,71,151.39,77.25,150.73,83.79Z"/><path class="cls-5" d="M36.05,59.88c3.17-8.68,13.13-13,22.24-9.7S72.23,63.25,69.06,71.93s-13.13,13-22.25,9.7S32.88,68.57,36.05,59.88Z"/><path class="cls-3" d="M36.33,59.1a15.36,15.36,0,1,1,9.16,19.69A15.38,15.38,0,0,1,36.33,59.1Z"/><path class="cls-6" d="M36.16,60.37c2.26-6.17,8-9.74,12.92-7.95s7,8.23,4.76,14.4-8,9.73-12.92,8S33.91,66.54,36.16,60.37Z"/><path class="cls-7" d="M86.41,86.36a4.57,4.57,0,0,1-9-1.48"/><path class="cls-7" d="M106.18,91.5a4.57,4.57,0,0,1-9-1.48"/><path class="cls-8" d="M101.08,127.63c-1.09,10.72-13.19,18.27-27,16.87s-24.17-11.23-23.08-22,13.18-18.27,27-16.87S102.16,116.91,101.08,127.63Z"/><path class="cls-9" d="M9.42,173.9s-3.33,10,8.67,12"/><path class="cls-9" d="M1.19,180.18s-1.5,4.49,3.89,5.39"/><path class="cls-10" d="M49.31,141.45s-7.71,15.71,4.35,27.73"/><path class="cls-11" d="M42.71,144s4.07-7.06,13.33-2.64"/><path class="cls-12" d="M86.53,107.68c-1.32,2.84-4.32,4.85-7.29,3.85a5.36,5.36,0,0,1-3.81-6,34.25,34.25,0,0,1,5.67.52S86.64,107.43,86.53,107.68Z"/><path class="cls-12" d="M95,113c-2.11,2.31-5.25,3.2-7.84,1.44a5.83,5.83,0,0,1-1.91-7.21,30.28,30.28,0,0,1,5,2.25S95.36,112.61,95,113Z"/><path class="cls-13" d="M99.74,132.68c-3.67,8-14.06,13.16-25.69,12-8.33-.84-15.39-4.74-19.46-10,0,0,27.16-15.63,45.41-3.63Z"/><path class="cls-12" d="M76.81,144.65a5.66,5.66,0,0,0-3.71-6.34c-2.95-1-6,1.39-7.47,4.17a33.24,33.24,0,0,0,10.69,2.19Z"/><path class="cls-12" d="M89.05,142.31A5.66,5.66,0,0,0,83,138.16c-3.11.33-4.93,3.32-5,6.45a25.47,25.47,0,0,0,10.47-2.07Z"/><path class="cls-12" d="M90.66,141.4c-1.49-2.76-1.35-6.06,1.17-7.93a5.67,5.67,0,0,1,7.33.48,22.61,22.61,0,0,1-3.61,4.24S90.94,141.91,90.66,141.4Z"/><path class="cls-9" d="M130.26,126.81s4.65-.89,2.81-6"/><path class="cls-13" d="M64.27,53.94a3,3,0,1,1,.24-4.29A3,3,0,0,1,64.27,53.94Z"/><path class="cls-13" d="M65.19,52.1l8.63,2.73s-4.15,6.76-10.17,8.57L62.1,54.52"/><path class="cls-13" d="M59.3,51.21l-8.63-2.73s4.15-6.76,10.18-8.57l1.55,8.88"/><path class="cls-14" d="M64.4,53.25a8.61,8.61,0,0,0,4.93,2.68"/><path class="cls-14" d="M63.5,53.87a8.55,8.55,0,0,1,2.1,5.2"/><path class="cls-14" d="M64.92,52.61a6,6,0,0,1-2.06,1.65"/><path class="cls-14" d="M60.19,49.85a8.6,8.6,0,0,0-4.92-2.68"/><path class="cls-14" d="M61.09,49.23A8.62,8.62,0,0,1,59,44"/><path class="cls-14" d="M59.67,50.49a6.2,6.2,0,0,1,2.06-1.66"/><path class="cls-13" d="M134.36,63a3,3,0,1,1-3.66-2.25A3,3,0,0,1,134.36,63Z"/><path class="cls-13" d="M133.17,61.36l6.51-6.31s4,6.86,2.72,13l-8.56-2.84"/><path class="cls-13" d="M129.6,66.12l-6.49,6.31s-4-6.86-2.73-13l8.56,2.84"/><path class="cls-14" d="M133.82,62.6a8.62,8.62,0,0,0,4.69-3.07"/><path class="cls-14" d="M133.94,63.68a8.58,8.58,0,0,1,5.57.62"/><path class="cls-14" d="M133.5,61.84a6.14,6.14,0,0,1,.48,2.6"/><path class="cls-14" d="M128.82,64.7a8.56,8.56,0,0,0-4.69,3.06"/><path class="cls-14" d="M128.7,63.61a8.58,8.58,0,0,1-5.57-.62"/><path class="cls-14" d="M129.14,65.45a6.12,6.12,0,0,1-.48-2.59"/></g></g></svg>