<svg xmlns="http://www.w3.org/2000/svg" viewBox="0 0 205.46 159.36"><defs><style>.cls-1,.cls-11,.cls-12,.cls-4,.cls-9{fill:none;}.cls-1{stroke:#35405c;stroke-width:6px;}.cls-1,.cls-11,.cls-4,.cls-9{stroke-linecap:round;}.cls-1,.cls-11,.cls-9{stroke-linejoin:round;}.cls-2,.cls-7{fill:#273044;}.cls-2{opacity:0.1;}.cls-3{fill:#1a2130;}.cls-4{stroke:#273044;stroke-width:5px;}.cls-12,.cls-4{stroke-miterlimit:10;}.cls-5{fill:#d35151;}.cls-6{fill:#ff5a58;}.cls-8{fill:#fff;}.cls-9{stroke:#d35151;stroke-width:3px;}.cls-10{fill:#171c29;}.cls-11{stroke:#313b55;stroke-width:2px;}.cls-12{stroke:#ff5a58;}</style></defs><g id="Layer_2" data-name="Layer 2"><g id="Calque_1" data-name="Calque 1"><path class="cls-1" d="M72.42,86.79S36.93,88.1,35,58.53c0,0-14.46-16.87-5.58-21.58"/><path class="cls-1" d="M50.74,47.35S50.08,53.93,35,58.53"/><path class="cls-1" d="M150.46,84S186,85.35,187.92,55.77c0,0,14.46-16.87,5.59-21.58"/><path class="cls-2" d="M141.83,151c0,4.63-16.12,8.38-36,8.38s-36-3.75-36-8.38,16.11-8.39,36-8.39S141.83,146.34,141.83,151Z"/><path class="cls-3" d="M129.29,147a2.67,2.67,0,0,1-2.67,2.66h-7.11a2.66,2.66,0,0,1-2.67-2.66l-1.78-9.78a2.67,2.67,0,0,1,2.67-2.67H128.4a2.67,2.67,0,0,1,2.67,2.67Z"/><path class="cls-4" d="M113.16,43.63s12.7-49,59.69-15.49"/><path class="cls-5" d="M205.46,31.19a19.67,19.67,0,1,1-19.67-19.66A19.67,19.67,0,0,1,205.46,31.19Z"/><path class="cls-6" d="M201.46,30.19a17.33,17.33,0,1,1-17.33-17.33A17.34,17.34,0,0,1,201.46,30.19Z"/><path class="cls-7" d="M58.55,77.52s1-25.21,21.48-37.89c1.65-1,2-6.26,3.93-7.1,2.08-.91,5.73,2.59,8.14,1.95a60.82,60.82,0,0,1,15.9-2,55.24,55.24,0,0,1,24.32,5.76c2.31,1.16,6.38-1.42,8.64.25,1.17.86.58,5.77,1.7,6.78,7.81,7.06,14.35,18,16.17,35,0,0,4.12,14.25-15.8,10.25l-44-8S77,79.28,77.88,105.86c0,0-.29,20.17,23.25,20.17l43.47-6.84s13.44-4,18.05,4c0,0,3.24,7.59-8.63,10l-42.39,9.34s-40,11.75-52-28.17C59.63,114.36,56,94,58.55,77.52Z"/><path class="cls-5" d="M145.09,90.86s-13.44,15.33-.49,28.33l-43.39,7s-24.21,2-23.62-23.33c0,0-1.18-27,30.61-19Z"/><path class="cls-8" d="M123.65,86.78s1.06.18,10,1.87l-5.87,7Z"/><path class="cls-8" d="M117.7,85.65l5.15,1-3,3.59Z"/><path class="cls-8" d="M111.47,84.49s.54.09,5.15,1l-3,3.6Z"/><path class="cls-8" d="M105.39,83.29s.55.09,5.15,1l-3,3.6Z"/><path class="cls-8" d="M99.09,82.4s.6-.27,5.2.6l-3,3.6Z"/><path class="cls-6" d="M77.46,104.78S76.67,127.05,101.8,126L126,122.19S120.13,101,101.13,99.53C101.13,99.53,84.46,97.86,77.46,104.78Z"/><path class="cls-8" d="M126.26,122.07s1.06-.16,10-1.62l-5.69-7.12Z"/><path class="cls-8" d="M120.28,123l5.18-.83-2.94-3.68Z"/><path class="cls-8" d="M114,124l5.18-.83-2.94-3.68Z"/><path class="cls-8" d="M107.91,125.08l5.18-.83-2.93-3.67Z"/><path class="cls-8" d="M101.59,125.8s.59.29,5.22-.46l-2.93-3.68Z"/><path class="cls-8" d="M195.13,30.86a10.67,10.67,0,1,1-10.67-10.67A10.67,10.67,0,0,1,195.13,30.86Z"/><path class="cls-7" d="M188.8,37.69A4.67,4.67,0,1,1,184.13,33,4.67,4.67,0,0,1,188.8,37.69Z"/><path class="cls-7" d="M94.69,150.49A2.68,2.68,0,0,1,92,153.16H84.91a2.67,2.67,0,0,1-2.67-2.67l-1.78-9.78A2.68,2.68,0,0,1,83.13,138H93.8a2.68,2.68,0,0,1,2.67,2.67Z"/><path class="cls-1" d="M172.15,44.6s.66,6.57,15.77,11.17"/><path class="cls-9" d="M180,5s7.23-7.79,15.67,0"/><path class="cls-10" d="M116.87,141.22S71.2,155.89,59.63,114.36c0,0-3.67-20.33-1.08-36.84,0,0,1-25.21,21.48-37.89,1.65-1,2-6.26,3.93-7.1,2.08-.91,5.73,2.59,8.14,1.95,4.63-1.25,21.77-4.26,33.44,1.08,0,0-40,9-48.34,44.66C77.2,80.22,62.87,130.89,116.87,141.22Z"/><path class="cls-11" d="M11.28,41.23S5.45,50,16.51,55.08"/><path class="cls-11" d="M1.69,45.15S-.93,49.09,4,51.37"/><path class="cls-11" d="M179.43,90.82s9.76,4,12.54-7.87"/><path class="cls-12" d="M158.83,80.28S101.46,55,59.46,75"/><path class="cls-12" d="M61,66s42-17,96.5,6.83"/><path class="cls-12" d="M155.3,64.69c-40.34-22.33-91-7.16-91-7.16"/><path class="cls-12" d="M68.63,50.69c1,0,43-16,82.33,5"/><path class="cls-12" d="M79,40.69s27.73-8.42,63.7,4.62"/><path class="cls-12" d="M58,83.69s43-22,99.34,4"/><path class="cls-12" d="M57.63,90s42-18,89,1"/><path class="cls-12" d="M57.63,97A91,91,0,0,1,81,90.7"/><path class="cls-12" d="M58.63,104.69s7-4.33,19.33-5.66"/><path class="cls-12" d="M59.63,112s5.17-3.34,18.25-6.17"/><path class="cls-12" d="M61,118.69s9-4.33,17.67-4.33"/><path class="cls-12" d="M64,124.69c1.67.34,7-4.66,18.67-4.66"/><path class="cls-12" d="M67.3,130.36s13.33-5,22.66-5.67"/><path class="cls-12" d="M73.3,136.36s63.51-15.56,82.05-16.93l1.28-.07"/><path class="cls-12" d="M80.46,140.71S141,125,162.65,123.19"/><path class="cls-12" d="M95.3,144s42.33-10.34,66-16.34"/></g></g></svg>