<svg xmlns="http://www.w3.org/2000/svg" viewBox="0 0 93.85 121.99"><defs><style>.cls-1{fill:#d4cd34;opacity:0.2;}.cls-2{fill:#f8fa2c;}.cls-3{fill:#e35758;}.cls-4{fill:#efe637;}.cls-5{fill:#7256c3;}.cls-6{fill:#ff5a58;}.cls-7{fill:#fff;}.cls-8{fill:#c7c231;}.cls-9{fill:#5e5098;}.cls-10,.cls-11{fill:none;stroke-linecap:round;}.cls-10{stroke:#c7c231;stroke-miterlimit:10;}.cls-11{stroke:#db5656;stroke-linejoin:round;}</style></defs><g id="Layer_2" data-name="Layer 2"><g id="Calque_1" data-name="Calque 1"><path class="cls-1" d="M78.67,110.49c0,6.35-17.61,11.5-39.34,11.5S0,116.84,0,110.49,17.61,99,39.33,99,78.67,104.13,78.67,110.49Z"/><path class="cls-2" d="M38.19,116.42c-.91,2.13-2.57,1.69-2.57,1.69-2.2-.55-2-3.48-2-3.48-.21-3-1.88-3.45-1.88-3.45l9.66,2.92S39,114.62,38.19,116.42Z"/><path class="cls-3" d="M79.2,20.67s8.67,0,10.64-5a7.23,7.23,0,0,1-5.61-3.2s-3.62,5.67-5.71,6.37Z"/><path class="cls-2" d="M57.65,99.71C60.32,57.05,78.4,27,78.4,27,83.07,13.67,73.55,2.79,61.65,1.17c-11-1.5-22.15,6.25-24.4,17.75,0,0-10.93,14.13-13.6,74.79,0,0-.33,19.84,17.5,20.5,0,0,13.33,1,15.83-11.83Z"/><path class="cls-4" d="M67.56,4.67c12,4.83,14.67,10.75,10,24.08,0,0-17.24,28.88-19.91,71.55L57,103c-1.87,12.15-15.83,11.24-15.83,11.24S49.6-2.57,67.56,4.67Z"/><path class="cls-5" d="M59.61,0s20,0,20.12,20.67A64.41,64.41,0,0,1,67,21.44S69.23,12.06,59.61,0Z"/><path class="cls-6" d="M59.61,0S68.88,8.73,67,21.44c0,0-7.67-.11-15.83-1C51.15,20.46,50,8.46,59.61,0Z"/><path class="cls-5" d="M59.81,0S42.13.23,37.25,18.92c0,0,9.69,1.37,14.13,1.56C51.38,20.48,50.69,7.17,59.81,0Z"/><path class="cls-7" d="M59.92,92.37C37.69,110,27.19,86,27.19,86c-1.83-5.35,1.37-2.9,1.37-2.9s6.88,20.4,30.13,9.9Z"/><path class="cls-7" d="M42.18,95.44c.08-1.71.78-3,1.55-2.85s1.27,1.53,1.19,3.24a4,4,0,0,1-2.77.25Z"/><path class="cls-7" d="M46.06,95.57c.08-1.71.77-3,1.55-2.85S48.88,94.24,48.8,96a4.08,4.08,0,0,1-2.77.26Z"/><path class="cls-7" d="M49.81,95.32c.08-1.71.77-3,1.55-2.85S52.63,94,52.55,95.7a4.08,4.08,0,0,1-2.77.26Z"/><path class="cls-7" d="M53.31,94.57c.08-1.71.77-3,1.55-2.85s1.27,1.52,1.19,3.23a4.08,4.08,0,0,1-2.77.26Z"/><path class="cls-7" d="M51.76,71.11a3.55,3.55,0,1,1-2.19-4.51,3.54,3.54,0,0,1,2.19,4.51"/><circle class="cls-8" cx="47.73" cy="68.83" r="2"/><path class="cls-7" d="M42.92,71a3.55,3.55,0,1,1-2.2-4.51A3.56,3.56,0,0,1,42.92,71"/><circle class="cls-8" cx="39.55" cy="68.53" r="2"/><path class="cls-8" d="M29.46,75.49a1,1,0,1,1,1.95.41,1,1,0,0,1-1.95-.41"/><path class="cls-8" d="M28.8,79.43a.69.69,0,1,1,1.35.28.68.68,0,0,1-.82.54.69.69,0,0,1-.53-.82"/><path class="cls-8" d="M25.67,76.82A.69.69,0,1,1,27,77.1a.68.68,0,0,1-.81.54.69.69,0,0,1-.54-.82"/><path class="cls-8" d="M25.12,80.29a.3.3,0,0,1,.36-.23.29.29,0,0,1,.24.36.31.31,0,0,1-.6-.13"/><path class="cls-8" d="M35.61,76.78a.71.71,0,0,1,.82-.54.69.69,0,0,1,.53.82.68.68,0,0,1-.82.54.69.69,0,0,1-.53-.82"/><path class="cls-8" d="M54.33,77.49a1,1,0,1,0-.77,1.18,1,1,0,0,0,.77-1.18"/><path class="cls-8" d="M55,81.43a.7.7,0,0,0-.82-.54.69.69,0,1,0,.82.54"/><path class="cls-8" d="M58.13,78.82a.7.7,0,0,0-.82-.54.69.69,0,1,0,.28,1.36.71.71,0,0,0,.54-.82"/><path class="cls-8" d="M58.67,82.29a.3.3,0,0,0-.36-.23.3.3,0,1,0,.13.59.3.3,0,0,0,.23-.36"/><path class="cls-8" d="M48.19,78.78a.71.71,0,0,0-.82-.54.69.69,0,0,0,.28,1.36.71.71,0,0,0,.54-.82"/><path class="cls-9" d="M59.81,0S68.56,9,67,21.44l3.52-.05S70.44,6.92,59.81,0Z"/><path class="cls-9" d="M59.81,0S41.94.5,37.25,18.92l2,.41S42.23,5.58,59.81,0Z"/><path class="cls-4" d="M58,94.92a12.25,12.25,0,0,0,1.5,9.25s2.58,2.83.75,5.16c0,0-1.33,1.75-4,.34a2.9,2.9,0,0,0-2.33.08"/><path class="cls-2" d="M23.93,91.25a12.19,12.19,0,0,1-2.84,8.93s-3,2.43-1.5,5c0,0,1.06,1.93,3.91.92l1.89-1.4s.47-.28,1,.47Z"/><path class="cls-2" d="M29.85,112.18c-1.71,1.55-3,.47-3,.47-1.78-1.41-.37-4-.37-4,1-2.84-.29-3.92-.29-3.92l6.58,7.17A2.25,2.25,0,0,0,29.85,112.18Z"/><path class="cls-4" d="M42.06,114.21a5,5,0,0,1,4.25,1.12,3.62,3.62,0,0,0,3.15,1.29,3.37,3.37,0,0,0,2.23-2.85,5,5,0,0,1,2.54-4.27"/><path class="cls-10" d="M50.72,65.65s-4,.25-5.5,2.5"/><path class="cls-10" d="M37.47,65.82s4,.25,5.5,2.5"/><path class="cls-11" d="M87,23s5.35,1.73,6.35-4.69"/><path class="cls-11" d="M90.4,27.34s2.4.78,2.85-2.11"/></g></g></svg>