<svg xmlns="http://www.w3.org/2000/svg" viewBox="0 0 116.66 226.4"><defs><style>.cls-1{fill:#c54e4d;opacity:0.1;}.cls-2{fill:#ff5a58;}.cls-3{fill:#983d3b;}.cls-4{fill:#fff;}.cls-5{fill:#f59c72;}.cls-6{fill:#da5555;}.cls-10,.cls-7,.cls-8{fill:none;stroke-linecap:round;stroke-linejoin:round;}.cls-7{stroke:#da5555;}.cls-7,.cls-8{stroke-width:2px;}.cls-8{stroke:#db5656;}.cls-9{fill:#a1413f;}.cls-10{stroke:#a1413f;}.cls-11{fill:#8b3836;}.cls-12{fill:#6d2c27;}</style></defs><g id="Layer_2" data-name="Layer 2"><g id="Calque_1" data-name="Calque 1"><path class="cls-1" d="M116.66,213.34c0,7.22-25.1,13.06-56.07,13.06S4.52,220.56,4.52,213.34s25.1-13.06,56.07-13.06S116.66,206.13,116.66,213.34Z"/><path class="cls-2" d="M32.46,142.81S42.54,156.4,37.71,168a24.09,24.09,0,0,0,2,18l9.43,22L54.54,204l-8.83-20.15a22.73,22.73,0,0,1,.15-15.69,18.3,18.3,0,0,1,16.45-12.38S38.39,148.45,32.46,142.81Z"/><path class="cls-3" d="M26.7,210.12s-3.31.22-3.3,3.07c0,0-.36,3,3.84,3H54a19.12,19.12,0,0,0,.48-12.42s-5,3.51-7.31-.47a30.54,30.54,0,0,1-20.43,6.83"/><path class="cls-4" d="M41.81,208.46a.69.69,0,1,0,.69-.69.69.69,0,0,0-.69.69"/><path class="cls-4" d="M39.35,209.84a.69.69,0,1,0,.69-.69.69.69,0,0,0-.69.69"/><path class="cls-4" d="M36.69,210.53a.69.69,0,1,0,.69-.69.69.69,0,0,0-.69.69"/><path class="cls-5" d="M27.7,210.13a3.15,3.15,0,0,0-1.92,2.68s-.09,1.65,1.92,1.74H54.52a9.63,9.63,0,0,1-.57,1.72H26.82s-3.84.23-3.9-3c0,0-.52-3.48,4.78-3.1"/><path class="cls-2" d="M86,146.34S77.18,157,82,168.62a24.07,24.07,0,0,1-2,18l-9.43,21.95-5.43-3.92L74,184.46a22.73,22.73,0,0,0-.15-15.69A18.28,18.28,0,0,0,57.41,156.4S80.07,152,86,146.34Z"/><path class="cls-2" d="M63.48,160.25q-.72,0-1.26,0A35.72,35.72,0,0,1,58.42,89a14.36,14.36,0,0,1,3.1-.34,8,8,0,0,0,0-15.92c-1.74,0-1.56-.4-5-.91a35.73,35.73,0,0,1,5.76-71,13.89,13.89,0,0,1,0,27.77,8,8,0,0,0-8,8c0,4.38,3.65,7.1,8,7.95,2.8.57,3.05.65,4.95.92a35.73,35.73,0,0,1-1.56,70.74,13.68,13.68,0,0,1-3.09.35,8,8,0,1,0,0,15.91,5.93,5.93,0,0,1,.75,0c.18,0,.39,0,.59,0a13.89,13.89,0,0,1,18.18,20.91C76.07,159.41,67.66,160.25,63.48,160.25Z"/><path class="cls-6" d="M26.89,124.5A35.78,35.78,0,0,1,58.42,89a14.36,14.36,0,0,1,3.1-.34,8,8,0,0,0,8-8c0-4.39-3.62-7.35-8-8-2.31-.32-2.15-.49-5-.91a35.73,35.73,0,0,1,5.76-71s-36.7,14.5-23,49.83c0,0,3.25,13.42,29.75,16.92,0,0,9.17,1,8,13.5,0,0,.5,11.41-19,15,0,0-11.25,1-21.5,12.5,0,0-7.5,8.5-8.75,14Z"/><path class="cls-7" d="M74.37,137.66a15.34,15.34,0,1,1-30.67,0"/><path class="cls-8" d="M87.71,14.85S93.54,6.06,82.48,1"/><path class="cls-8" d="M97.3,10.93S99.92,7,95,4.71"/><path class="cls-8" d="M11.28,119.86s-5.83,8.79,5.23,13.85"/><path class="cls-8" d="M1.69,123.78S-.93,127.73,4,130"/><path class="cls-7" d="M41.62,138.61s2-3,4.25-.13"/><path class="cls-7" d="M72.25,138.11s2-3,4.25-.13"/><path class="cls-4" d="M46.62,148.11a2.28,2.28,0,0,1-2.55-3.77"/><path class="cls-4" d="M74,144.59a2.27,2.27,0,0,1-2.51,3.79"/><circle class="cls-9" cx="57.02" cy="105.71" r="1.4"/><path class="cls-10" d="M57.87,105a2.49,2.49,0,0,0-3.67,1"/><path class="cls-9" d="M60,105a1.4,1.4,0,1,0,2.66-.85A1.4,1.4,0,1,0,60,105Z"/><path class="cls-10" d="M60.35,104.13a2.49,2.49,0,0,1,3.8-.16"/><path class="cls-3" d="M92.7,210.87s3.3.22,3.3,3.07c0,0,.36,3-3.85,3H65.44A19.09,19.09,0,0,1,65,204.51s5,3.51,7.32-.47a30.54,30.54,0,0,0,20.43,6.83"/><path class="cls-4" d="M77.59,209.21a.69.69,0,1,1-.69-.69.69.69,0,0,1,.69.69"/><path class="cls-4" d="M80,210.59a.69.69,0,1,1-.69-.69.69.69,0,0,1,.69.69"/><path class="cls-4" d="M82.7,211.28a.69.69,0,1,1-.69-.69.69.69,0,0,1,.69.69"/><path class="cls-5" d="M91.69,210.88a3.15,3.15,0,0,1,1.92,2.68s.09,1.65-1.92,1.74H64.88a10.23,10.23,0,0,0,.56,1.72H92.58s3.84.23,3.9-3c0,0,.51-3.48-4.79-3.1"/><path class="cls-11" d="M48.61,91.26s-1.78,7.36,16.7,6.1c0,0,15.51-1.22,19.31,5,0,0-.6-16.28-19.51-18,0,0-13.37-.65-16.5,6.87"/><path class="cls-11" d="M46.27,95.55s4-1.32,4.61-3c0,0,1-2.39-2.28-2.33,0,0-5.23,0-9.39,7.88,0,0,3.17-1.34,7.06-2.51"/><path class="cls-12" d="M84,99.84S82.68,86.5,65,84.45c0,0-8.24-.39-13.17,3,0,0-3.49,2.34-2.61,3.91,0,0,.68,1.87,3.79,0,0,0,13.69-8.54,25.44.77A16.57,16.57,0,0,1,84,99.84Z"/><path class="cls-12" d="M49.31,90.23s-3.88-.5-7.81,4.31c0,0,6.31-.31,8.68-2.43Z"/></g></g></svg>